<mxfile host="app.diagrams.net" agent="Mozilla/5.0 (Windows NT 10.0; Win64; x64) AppleWebKit/537.36 (KHTML, like Gecko) Chrome/140.0.0.0 Safari/537.36" version="28.2.4" pages="6">
  <diagram name="Página-1" id="CemEO1xIWkG7vVVft42I">
    <mxGraphModel dx="396" dy="590" grid="1" gridSize="10" guides="1" tooltips="1" connect="1" arrows="1" fold="1" page="1" pageScale="1" pageWidth="827" pageHeight="1169" math="0" shadow="0">
      <root>
        <mxCell id="0" />
        <mxCell id="1" parent="0" />
        <mxCell id="Zj6I7n_l1J5LDBhH3HN4-1" style="edgeStyle=none;curved=1;rounded=0;orthogonalLoop=1;jettySize=auto;html=1;exitX=0.5;exitY=1;exitDx=0;exitDy=0;fontSize=12;startSize=8;endSize=8;" edge="1" parent="1">
          <mxGeometry relative="1" as="geometry">
            <mxPoint x="450.5" y="260" as="sourcePoint" />
            <mxPoint x="450.5" y="260" as="targetPoint" />
          </mxGeometry>
        </mxCell>
        <mxCell id="Zj6I7n_l1J5LDBhH3HN4-2" value="&lt;b&gt;&lt;span style=&quot;font-size:11.0pt;line-height:107%;&amp;lt;br/&amp;gt;font-family:&amp;quot;Calibri&amp;quot;,sans-serif;mso-ascii-theme-font:minor-latin;mso-fareast-font-family:&amp;lt;br/&amp;gt;Calibri;mso-fareast-theme-font:minor-latin;mso-hansi-theme-font:minor-latin;&amp;lt;br/&amp;gt;mso-bidi-font-family:&amp;quot;Times New Roman&amp;quot;;mso-bidi-theme-font:minor-bidi;&amp;lt;br/&amp;gt;mso-ansi-language:ES;mso-fareast-language:EN-US;mso-bidi-language:AR-SA&quot;&gt;Cadete(&lt;/span&gt;&lt;/b&gt;&lt;span style=&quot;font-size: 11pt; line-height: 107%; font-family: Calibri, sans-serif;&quot;&gt;&lt;u&gt;Teléfono&lt;/u&gt;&lt;/span&gt;&lt;span style=&quot;font-size:11.0pt;&amp;lt;br/&amp;gt;line-height:107%;font-family:&amp;quot;Calibri&amp;quot;,sans-serif;mso-ascii-theme-font:minor-latin;&amp;lt;br/&amp;gt;mso-fareast-font-family:Calibri;mso-fareast-theme-font:minor-latin;mso-hansi-theme-font:&amp;lt;br/&amp;gt;minor-latin;mso-bidi-font-family:&amp;quot;Times New Roman&amp;quot;;mso-bidi-theme-font:minor-bidi;&amp;lt;br/&amp;gt;mso-ansi-language:ES;mso-fareast-language:EN-US;mso-bidi-language:AR-SA&quot;&gt;, Nombre, Tipo, Modelo, Marca&lt;b&gt;)&amp;nbsp;&lt;/b&gt;&lt;/span&gt;" style="text;html=1;align=center;verticalAlign=middle;resizable=0;points=[];autosize=1;strokeColor=none;fillColor=none;fontSize=16;" vertex="1" parent="1">
          <mxGeometry x="234" y="160" width="320" height="30" as="geometry" />
        </mxCell>
        <mxCell id="Zj6I7n_l1J5LDBhH3HN4-3" value="&lt;b&gt;&lt;span style=&quot;font-size:11.0pt;line-height:107%;&amp;lt;br/&amp;gt;font-family:&amp;quot;Calibri&amp;quot;,sans-serif;mso-ascii-theme-font:minor-latin;mso-fareast-font-family:&amp;lt;br/&amp;gt;Calibri;mso-fareast-theme-font:minor-latin;mso-hansi-theme-font:minor-latin;&amp;lt;br/&amp;gt;mso-bidi-font-family:&amp;quot;Times New Roman&amp;quot;;mso-bidi-theme-font:minor-bidi;&amp;lt;br/&amp;gt;mso-ansi-language:ES;mso-fareast-language:EN-US;mso-bidi-language:AR-SA&quot;&gt;Pedido (&lt;/span&gt;&lt;/b&gt;&lt;u&gt;&lt;span style=&quot;font-size:11.0pt;line-height:107%;font-family:&amp;quot;Calibri&amp;quot;,sans-serif;&amp;lt;br/&amp;gt;mso-ascii-theme-font:minor-latin;mso-fareast-font-family:Calibri;mso-fareast-theme-font:&amp;lt;br/&amp;gt;minor-latin;mso-hansi-theme-font:minor-latin;mso-bidi-font-family:&amp;quot;Times New Roman&amp;quot;;&amp;lt;br/&amp;gt;mso-bidi-theme-font:minor-bidi;mso-ansi-language:ES;mso-fareast-language:EN-US;&amp;lt;br/&amp;gt;mso-bidi-language:AR-SA&quot;&gt;TelCliente&lt;/span&gt;&lt;/u&gt;&lt;span style=&quot;font-size:11.0pt;&amp;lt;br/&amp;gt;line-height:107%;font-family:&amp;quot;Calibri&amp;quot;,sans-serif;mso-ascii-theme-font:minor-latin;&amp;lt;br/&amp;gt;mso-fareast-font-family:Calibri;mso-fareast-theme-font:minor-latin;mso-hansi-theme-font:&amp;lt;br/&amp;gt;minor-latin;mso-bidi-font-family:&amp;quot;Times New Roman&amp;quot;;mso-bidi-theme-font:minor-bidi;&amp;lt;br/&amp;gt;mso-ansi-language:ES;mso-fareast-language:EN-US;mso-bidi-language:AR-SA&quot;&gt;, &lt;u&gt;Código&lt;/u&gt;, fecha, hora, monto, TeléfonoCa&lt;b&gt;) &lt;/b&gt;&lt;/span&gt;" style="text;whiteSpace=wrap;html=1;" vertex="1" parent="1">
          <mxGeometry x="240" y="330" width="460" height="30" as="geometry" />
        </mxCell>
        <mxCell id="Zj6I7n_l1J5LDBhH3HN4-4" value="FK" style="text;html=1;align=center;verticalAlign=middle;resizable=0;points=[];autosize=1;strokeColor=none;fillColor=none;fontSize=16;" vertex="1" parent="1">
          <mxGeometry x="554" y="360" width="40" height="30" as="geometry" />
        </mxCell>
        <mxCell id="Zj6I7n_l1J5LDBhH3HN4-5" value="&lt;b&gt;&lt;span style=&quot;font-size:11.0pt;line-height:107%;&amp;lt;br/&amp;gt;font-family:&amp;quot;Calibri&amp;quot;,sans-serif;mso-ascii-theme-font:minor-latin;mso-fareast-font-family:&amp;lt;br/&amp;gt;Calibri;mso-fareast-theme-font:minor-latin;mso-hansi-theme-font:minor-latin;&amp;lt;br/&amp;gt;mso-bidi-font-family:&amp;quot;Times New Roman&amp;quot;;mso-bidi-theme-font:minor-bidi;&amp;lt;br/&amp;gt;mso-ansi-language:ES;mso-fareast-language:EN-US;mso-bidi-language:AR-SA&quot;&gt;Domicilio (&lt;/span&gt;&lt;/b&gt;&lt;u&gt;&lt;span style=&quot;font-size:11.0pt;line-height:107%;font-family:&amp;quot;Calibri&amp;quot;,sans-serif;&amp;lt;br/&amp;gt;mso-ascii-theme-font:minor-latin;mso-fareast-font-family:Calibri;mso-fareast-theme-font:&amp;lt;br/&amp;gt;minor-latin;mso-hansi-theme-font:minor-latin;mso-bidi-font-family:&amp;quot;Times New Roman&amp;quot;;&amp;lt;br/&amp;gt;mso-bidi-theme-font:minor-bidi;mso-ansi-language:ES;mso-fareast-language:EN-US;&amp;lt;br/&amp;gt;mso-bidi-language:AR-SA&quot;&gt;NombreC, Atura, Calle, Dpto&lt;/span&gt;&lt;/u&gt;&lt;b&gt;&lt;span style=&quot;font-size:11.0pt;line-height:107%;font-family:&amp;quot;Calibri&amp;quot;,sans-serif;&amp;lt;br/&amp;gt;mso-ascii-theme-font:minor-latin;mso-fareast-font-family:Calibri;mso-fareast-theme-font:&amp;lt;br/&amp;gt;minor-latin;mso-hansi-theme-font:minor-latin;mso-bidi-font-family:&amp;quot;Times New Roman&amp;quot;;&amp;lt;br/&amp;gt;mso-bidi-theme-font:minor-bidi;mso-ansi-language:ES;mso-fareast-language:EN-US;&amp;lt;br/&amp;gt;mso-bidi-language:AR-SA&quot;&gt;) &lt;/span&gt;&lt;/b&gt;" style="text;whiteSpace=wrap;html=1;" vertex="1" parent="1">
          <mxGeometry x="250" y="505" width="250" height="30" as="geometry" />
        </mxCell>
        <mxCell id="Zj6I7n_l1J5LDBhH3HN4-6" value="FK" style="text;html=1;align=center;verticalAlign=middle;resizable=0;points=[];autosize=1;strokeColor=none;fillColor=none;fontSize=16;" vertex="1" parent="1">
          <mxGeometry x="350" y="485" width="40" height="30" as="geometry" />
        </mxCell>
        <mxCell id="Zj6I7n_l1J5LDBhH3HN4-7" value="&lt;b&gt;&lt;span style=&quot;font-size:11.0pt;line-height:107%;&amp;lt;br/&amp;gt;font-family:&amp;quot;Calibri&amp;quot;,sans-serif;mso-ascii-theme-font:minor-latin;mso-fareast-font-family:&amp;lt;br/&amp;gt;Calibri;mso-fareast-theme-font:minor-latin;mso-hansi-theme-font:minor-latin;&amp;lt;br/&amp;gt;mso-bidi-font-family:&amp;quot;Times New Roman&amp;quot;;mso-bidi-theme-font:minor-bidi;&amp;lt;br/&amp;gt;mso-ansi-language:ES;mso-fareast-language:EN-US;mso-bidi-language:AR-SA&quot;&gt;Borrado y Modificacion:&lt;br&gt;cascada&lt;/span&gt;&lt;/b&gt;" style="text;whiteSpace=wrap;html=1;" vertex="1" parent="1">
          <mxGeometry x="340" y="535" width="90" height="50" as="geometry" />
        </mxCell>
        <mxCell id="Zj6I7n_l1J5LDBhH3HN4-8" value="&lt;b&gt;&lt;span style=&quot;font-size:11.0pt;line-height:107%;&amp;lt;br/&amp;gt;font-family:&amp;quot;Calibri&amp;quot;,sans-serif;mso-ascii-theme-font:minor-latin;mso-fareast-font-family:&amp;lt;br/&amp;gt;Calibri;mso-fareast-theme-font:minor-latin;mso-hansi-theme-font:minor-latin;&amp;lt;br/&amp;gt;mso-bidi-font-family:&amp;quot;Times New Roman&amp;quot;;mso-bidi-theme-font:minor-bidi;&amp;lt;br/&amp;gt;mso-ansi-language:ES;mso-fareast-language:EN-US;mso-bidi-language:AR-SA&quot;&gt;M y B:&lt;/span&gt;&lt;/b&gt;&lt;div&gt;&lt;b&gt;&lt;span style=&quot;font-size:11.0pt;line-height:107%;&amp;lt;br/&amp;gt;font-family:&amp;quot;Calibri&amp;quot;,sans-serif;mso-ascii-theme-font:minor-latin;mso-fareast-font-family:&amp;lt;br/&amp;gt;Calibri;mso-fareast-theme-font:minor-latin;mso-hansi-theme-font:minor-latin;&amp;lt;br/&amp;gt;mso-bidi-font-family:&amp;quot;Times New Roman&amp;quot;;mso-bidi-theme-font:minor-bidi;&amp;lt;br/&amp;gt;mso-ansi-language:ES;mso-fareast-language:EN-US;mso-bidi-language:AR-SA&quot;&gt;Not Action&lt;/span&gt;&lt;/b&gt;&lt;/div&gt;" style="text;whiteSpace=wrap;html=1;" vertex="1" parent="1">
          <mxGeometry x="287" y="370" width="86" height="60" as="geometry" />
        </mxCell>
        <mxCell id="TiZMTBdsuXmpVhDDGkZK-1" value="&lt;font style=&quot;font-size: 16px;&quot;&gt;FK&lt;/font&gt;" style="text;html=1;align=center;verticalAlign=middle;resizable=0;points=[];autosize=1;strokeColor=none;fillColor=none;" vertex="1" parent="1">
          <mxGeometry x="310" y="310" width="40" height="30" as="geometry" />
        </mxCell>
        <mxCell id="TiZMTBdsuXmpVhDDGkZK-3" value="&lt;b&gt;&lt;span style=&quot;font-size:11.0pt;line-height:107%;&amp;lt;br/&amp;gt;font-family:&amp;quot;Calibri&amp;quot;,sans-serif;mso-ascii-theme-font:minor-latin;mso-fareast-font-family:&amp;lt;br/&amp;gt;Calibri;mso-fareast-theme-font:minor-latin;mso-hansi-theme-font:minor-latin;&amp;lt;br/&amp;gt;mso-bidi-font-family:&amp;quot;Times New Roman&amp;quot;;mso-bidi-theme-font:minor-bidi;&amp;lt;br/&amp;gt;mso-ansi-language:ES;mso-fareast-language:EN-US;mso-bidi-language:AR-SA&quot;&gt;M y B:&lt;/span&gt;&lt;/b&gt;&lt;div&gt;&lt;b&gt;&lt;span style=&quot;font-size:11.0pt;line-height:107%;&amp;lt;br/&amp;gt;font-family:&amp;quot;Calibri&amp;quot;,sans-serif;mso-ascii-theme-font:minor-latin;mso-fareast-font-family:&amp;lt;br/&amp;gt;Calibri;mso-fareast-theme-font:minor-latin;mso-hansi-theme-font:minor-latin;&amp;lt;br/&amp;gt;mso-bidi-font-family:&amp;quot;Times New Roman&amp;quot;;mso-bidi-theme-font:minor-bidi;&amp;lt;br/&amp;gt;mso-ansi-language:ES;mso-fareast-language:EN-US;mso-bidi-language:AR-SA&quot;&gt;Not Action&lt;/span&gt;&lt;/b&gt;&lt;/div&gt;" style="text;whiteSpace=wrap;html=1;" vertex="1" parent="1">
          <mxGeometry x="554" y="390" width="86" height="60" as="geometry" />
        </mxCell>
        <mxCell id="TiZMTBdsuXmpVhDDGkZK-4" value="&lt;b&gt;&lt;span style=&quot;font-size:11.0pt;line-height:107%;&amp;lt;br/&amp;gt;font-family:&amp;quot;Calibri&amp;quot;,sans-serif;mso-ascii-theme-font:minor-latin;mso-fareast-font-family:&amp;lt;br/&amp;gt;Calibri;mso-fareast-theme-font:minor-latin;mso-hansi-theme-font:minor-latin;&amp;lt;br/&amp;gt;mso-bidi-font-family:&amp;quot;Times New Roman&amp;quot;;mso-bidi-theme-font:minor-bidi;&amp;lt;br/&amp;gt;mso-ansi-language:ES;mso-fareast-language:EN-US;mso-bidi-language:AR-SA&quot;&gt;Cliente(&lt;/span&gt;&lt;/b&gt;&lt;span style=&quot;font-size: 11pt; line-height: 107%; font-family: Calibri, sans-serif;&quot;&gt;&lt;u&gt;Teléfono&lt;/u&gt;&lt;/span&gt;&lt;span style=&quot;font-size:11.0pt;&amp;lt;br/&amp;gt;line-height:107%;font-family:&amp;quot;Calibri&amp;quot;,sans-serif;mso-ascii-theme-font:minor-latin;&amp;lt;br/&amp;gt;mso-fareast-font-family:Calibri;mso-fareast-theme-font:minor-latin;mso-hansi-theme-font:&amp;lt;br/&amp;gt;minor-latin;mso-bidi-font-family:&amp;quot;Times New Roman&amp;quot;;mso-bidi-theme-font:minor-bidi;&amp;lt;br/&amp;gt;mso-ansi-language:ES;mso-fareast-language:EN-US;mso-bidi-language:AR-SA&quot;&gt;, Nombre&lt;b&gt;)&amp;nbsp;&lt;/b&gt;&lt;/span&gt;" style="text;html=1;align=center;verticalAlign=middle;resizable=0;points=[];autosize=1;strokeColor=none;fillColor=none;fontSize=16;" vertex="1" parent="1">
          <mxGeometry x="240" y="60" width="190" height="30" as="geometry" />
        </mxCell>
        <mxCell id="TiZMTBdsuXmpVhDDGkZK-8" value="" style="endArrow=classic;html=1;rounded=0;exitX=0.75;exitY=0;exitDx=0;exitDy=0;entryX=0.996;entryY=0.768;entryDx=0;entryDy=0;entryPerimeter=0;" edge="1" parent="1" source="Zj6I7n_l1J5LDBhH3HN4-3" target="Zj6I7n_l1J5LDBhH3HN4-2">
          <mxGeometry width="50" height="50" relative="1" as="geometry">
            <mxPoint x="280" y="240" as="sourcePoint" />
            <mxPoint x="570" y="170" as="targetPoint" />
            <Array as="points">
              <mxPoint x="590" y="250" />
              <mxPoint x="590" y="210" />
            </Array>
          </mxGeometry>
        </mxCell>
        <mxCell id="TiZMTBdsuXmpVhDDGkZK-10" value="" style="endArrow=classic;html=1;rounded=0;exitX=0;exitY=0.25;exitDx=0;exitDy=0;entryX=0.001;entryY=0.684;entryDx=0;entryDy=0;entryPerimeter=0;" edge="1" parent="1" source="Zj6I7n_l1J5LDBhH3HN4-5" target="TiZMTBdsuXmpVhDDGkZK-4">
          <mxGeometry width="50" height="50" relative="1" as="geometry">
            <mxPoint x="380" y="360" as="sourcePoint" />
            <mxPoint x="430" y="310" as="targetPoint" />
            <Array as="points">
              <mxPoint x="130" y="310" />
            </Array>
          </mxGeometry>
        </mxCell>
        <mxCell id="TiZMTBdsuXmpVhDDGkZK-11" value="" style="endArrow=classic;html=1;rounded=0;exitX=0.538;exitY=0.059;exitDx=0;exitDy=0;exitPerimeter=0;entryX=-0.012;entryY=0.851;entryDx=0;entryDy=0;entryPerimeter=0;" edge="1" parent="1" source="TiZMTBdsuXmpVhDDGkZK-1" target="TiZMTBdsuXmpVhDDGkZK-4">
          <mxGeometry width="50" height="50" relative="1" as="geometry">
            <mxPoint x="323" y="310" as="sourcePoint" />
            <mxPoint x="220" y="170" as="targetPoint" />
            <Array as="points">
              <mxPoint x="220" y="310" />
            </Array>
          </mxGeometry>
        </mxCell>
      </root>
    </mxGraphModel>
  </diagram>
  <diagram name="Página-2" id="4KteOtctbT7Cp62Bs8Ui">
    <mxGraphModel dx="796" dy="990" grid="1" gridSize="10" guides="1" tooltips="1" connect="1" arrows="1" fold="1" page="0" pageScale="1" pageWidth="827" pageHeight="1169" math="0" shadow="0">
      <root>
        <mxCell id="0" />
        <mxCell id="1" parent="0" />
        <mxCell id="ixEIqBD7Xqr0jLi677fi-1" value="Cliente(&lt;u&gt;DNI&lt;/u&gt;, nombre, dirección, teléfono, CodigoCC)" style="text;html=1;align=left;verticalAlign=middle;resizable=0;points=[];autosize=1;strokeColor=none;fillColor=none;" vertex="1" parent="1">
          <mxGeometry x="-40" y="-362" width="300" height="30" as="geometry" />
        </mxCell>
        <mxCell id="ixEIqBD7Xqr0jLi677fi-2" value="CuentaCorriente(&lt;u&gt;Codigo&lt;/u&gt;, fecha, saldo)" style="text;html=1;align=left;verticalAlign=middle;resizable=0;points=[];autosize=1;strokeColor=none;fillColor=none;" vertex="1" parent="1">
          <mxGeometry x="-40" y="-260" width="230" height="30" as="geometry" />
        </mxCell>
        <mxCell id="ixEIqBD7Xqr0jLi677fi-3" value="Movientos(&lt;u&gt;CodigoCC, fecha&lt;/u&gt;, tipo, importe&amp;nbsp;)" style="text;html=1;align=left;verticalAlign=middle;resizable=0;points=[];autosize=1;strokeColor=none;fillColor=none;textDirection=ltr;" vertex="1" parent="1">
          <mxGeometry x="-40" y="-122" width="250" height="30" as="geometry" />
        </mxCell>
        <mxCell id="ixEIqBD7Xqr0jLi677fi-4" value="FK" style="text;html=1;align=center;verticalAlign=middle;resizable=0;points=[];autosize=1;strokeColor=none;fillColor=none;" vertex="1" parent="1">
          <mxGeometry x="190" y="-342" width="40" height="30" as="geometry" />
        </mxCell>
        <mxCell id="ixEIqBD7Xqr0jLi677fi-6" value="FK" style="text;html=1;align=center;verticalAlign=middle;resizable=0;points=[];autosize=1;strokeColor=none;fillColor=none;" vertex="1" parent="1">
          <mxGeometry x="20" y="-140" width="40" height="30" as="geometry" />
        </mxCell>
        <mxCell id="ixEIqBD7Xqr0jLi677fi-8" value="Modificacion: Cascada&lt;div&gt;Borrado: Set NULL&lt;/div&gt;" style="text;html=1;align=left;verticalAlign=middle;resizable=0;points=[];autosize=1;strokeColor=none;fillColor=none;" vertex="1" parent="1">
          <mxGeometry x="230" y="-332" width="140" height="40" as="geometry" />
        </mxCell>
        <mxCell id="ixEIqBD7Xqr0jLi677fi-9" value="Modificacion: Cascada&lt;div&gt;Borrado: No Action&lt;/div&gt;" style="text;html=1;align=left;verticalAlign=middle;resizable=0;points=[];autosize=1;strokeColor=none;fillColor=none;" vertex="1" parent="1">
          <mxGeometry x="20" y="-90" width="140" height="40" as="geometry" />
        </mxCell>
        <mxCell id="bzN1Lda-shng5yiJbFF8-1" value="" style="endArrow=classic;html=1;rounded=0;entryX=0.191;entryY=0.934;entryDx=0;entryDy=0;entryPerimeter=0;" edge="1" parent="1" source="ixEIqBD7Xqr0jLi677fi-6" target="ixEIqBD7Xqr0jLi677fi-2">
          <mxGeometry width="50" height="50" relative="1" as="geometry">
            <mxPoint y="-210" as="sourcePoint" />
            <mxPoint x="50" y="-260" as="targetPoint" />
          </mxGeometry>
        </mxCell>
        <mxCell id="bzN1Lda-shng5yiJbFF8-2" value="" style="endArrow=classic;html=1;rounded=0;exitX=0.444;exitY=1.084;exitDx=0;exitDy=0;exitPerimeter=0;" edge="1" parent="1" source="ixEIqBD7Xqr0jLi677fi-4" target="ixEIqBD7Xqr0jLi677fi-2">
          <mxGeometry width="50" height="50" relative="1" as="geometry">
            <mxPoint x="130" y="-210" as="sourcePoint" />
            <mxPoint x="180" y="-260" as="targetPoint" />
          </mxGeometry>
        </mxCell>
      </root>
    </mxGraphModel>
  </diagram>
  <diagram id="qSN-vZPH0UUGq5pFLaLA" name="Página-3">
    <mxGraphModel dx="396" dy="590" grid="1" gridSize="10" guides="1" tooltips="1" connect="1" arrows="1" fold="1" page="1" pageScale="1" pageWidth="827" pageHeight="1169" math="0" shadow="0">
      <root>
        <mxCell id="0" />
        <mxCell id="1" parent="0" />
        <mxCell id="NZv09B7EsB9gKpCAbMZP-1" value="Imputable(&lt;u&gt;Numero&lt;/u&gt;, nombre, descripcion, fechaFin, FechaInicio,NumeroIntegradora, IDcat)" style="text;html=1;align=left;verticalAlign=middle;resizable=0;points=[];autosize=1;strokeColor=none;fillColor=none;" vertex="1" parent="1">
          <mxGeometry x="54" y="90" width="500" height="30" as="geometry" />
        </mxCell>
        <mxCell id="NZv09B7EsB9gKpCAbMZP-2" value="Integradora(&lt;u&gt;Numero&lt;/u&gt;, nombre, descripcion, NumeroIntegradora)" style="text;html=1;align=left;verticalAlign=middle;resizable=0;points=[];autosize=1;strokeColor=none;fillColor=none;" vertex="1" parent="1">
          <mxGeometry x="50" y="240" width="360" height="30" as="geometry" />
        </mxCell>
        <mxCell id="7WTLAW-ck7n47wGXgIVh-1" value="Categoria(&lt;u&gt;ID&lt;/u&gt;, Categoria)" style="text;html=1;align=left;verticalAlign=middle;resizable=0;points=[];autosize=1;strokeColor=none;fillColor=none;" vertex="1" parent="1">
          <mxGeometry x="54" y="358" width="150" height="30" as="geometry" />
        </mxCell>
        <mxCell id="7WTLAW-ck7n47wGXgIVh-2" value="FK" style="text;html=1;align=left;verticalAlign=middle;resizable=0;points=[];autosize=1;strokeColor=none;fillColor=none;" vertex="1" parent="1">
          <mxGeometry x="410" y="118" width="40" height="30" as="geometry" />
        </mxCell>
        <mxCell id="7WTLAW-ck7n47wGXgIVh-3" value="FK" style="text;html=1;align=left;verticalAlign=middle;resizable=0;points=[];autosize=1;strokeColor=none;fillColor=none;" vertex="1" parent="1">
          <mxGeometry x="510" y="118" width="40" height="30" as="geometry" />
        </mxCell>
        <mxCell id="7WTLAW-ck7n47wGXgIVh-4" value="FK" style="text;html=1;align=left;verticalAlign=middle;resizable=0;points=[];autosize=1;strokeColor=none;fillColor=none;" vertex="1" parent="1">
          <mxGeometry x="320" y="270" width="40" height="30" as="geometry" />
        </mxCell>
        <mxCell id="7WTLAW-ck7n47wGXgIVh-5" value="Modificacion: Cascada&lt;div&gt;Borrado: No Action&lt;/div&gt;" style="text;html=1;align=left;verticalAlign=middle;resizable=0;points=[];autosize=1;strokeColor=none;fillColor=none;" vertex="1" parent="1">
          <mxGeometry x="320" y="295" width="140" height="40" as="geometry" />
        </mxCell>
        <mxCell id="pBM5Pb0X8AflggfHfzx1-1" value="Modificacion: Cascada&lt;div&gt;Borrado: No Action&lt;/div&gt;" style="text;html=1;align=left;verticalAlign=middle;resizable=0;points=[];autosize=1;strokeColor=none;fillColor=none;" vertex="1" parent="1">
          <mxGeometry x="344" y="148" width="140" height="40" as="geometry" />
        </mxCell>
        <mxCell id="pBM5Pb0X8AflggfHfzx1-2" value="Modificacion: Cascada&lt;div&gt;Borrado: No Action&lt;/div&gt;" style="text;html=1;align=left;verticalAlign=middle;resizable=0;points=[];autosize=1;strokeColor=none;fillColor=none;" vertex="1" parent="1">
          <mxGeometry x="510" y="148" width="140" height="40" as="geometry" />
        </mxCell>
        <mxCell id="us5ItU6sRtHWVnW8wTv0-1" value="" style="endArrow=classic;html=1;rounded=0;" edge="1" parent="1" source="7WTLAW-ck7n47wGXgIVh-4">
          <mxGeometry width="50" height="50" relative="1" as="geometry">
            <mxPoint x="270" y="330" as="sourcePoint" />
            <mxPoint x="320" y="280" as="targetPoint" />
          </mxGeometry>
        </mxCell>
        <mxCell id="us5ItU6sRtHWVnW8wTv0-2" value="" style="endArrow=classic;html=1;rounded=0;exitX=0.975;exitY=0.559;exitDx=0;exitDy=0;exitPerimeter=0;entryX=1.001;entryY=0.643;entryDx=0;entryDy=0;entryPerimeter=0;" edge="1" parent="1" source="7WTLAW-ck7n47wGXgIVh-4" target="NZv09B7EsB9gKpCAbMZP-2">
          <mxGeometry width="50" height="50" relative="1" as="geometry">
            <mxPoint x="270" y="330" as="sourcePoint" />
            <mxPoint x="410" y="260" as="targetPoint" />
            <Array as="points">
              <mxPoint x="420" y="280" />
            </Array>
          </mxGeometry>
        </mxCell>
        <mxCell id="us5ItU6sRtHWVnW8wTv0-5" value="" style="endArrow=classic;html=1;rounded=0;exitX=1.006;exitY=0.501;exitDx=0;exitDy=0;exitPerimeter=0;entryX=1.017;entryY=0.293;entryDx=0;entryDy=0;entryPerimeter=0;" edge="1" parent="1" source="7WTLAW-ck7n47wGXgIVh-3" target="7WTLAW-ck7n47wGXgIVh-1">
          <mxGeometry width="50" height="50" relative="1" as="geometry">
            <mxPoint x="500" y="210" as="sourcePoint" />
            <mxPoint x="710" y="130" as="targetPoint" />
            <Array as="points">
              <mxPoint x="720" y="150" />
              <mxPoint x="720" y="360" />
            </Array>
          </mxGeometry>
        </mxCell>
        <mxCell id="us5ItU6sRtHWVnW8wTv0-6" value="" style="endArrow=classic;html=1;rounded=0;entryX=0.247;entryY=0.101;entryDx=0;entryDy=0;entryPerimeter=0;exitX=0.069;exitY=0.334;exitDx=0;exitDy=0;exitPerimeter=0;" edge="1" parent="1" source="7WTLAW-ck7n47wGXgIVh-2" target="NZv09B7EsB9gKpCAbMZP-2">
          <mxGeometry width="50" height="50" relative="1" as="geometry">
            <mxPoint x="250" y="210" as="sourcePoint" />
            <mxPoint x="300" y="160" as="targetPoint" />
            <Array as="points">
              <mxPoint x="270" y="150" />
            </Array>
          </mxGeometry>
        </mxCell>
      </root>
    </mxGraphModel>
  </diagram>
  <diagram id="ohAS5spgTay_BZaEcQkB" name="Página-4">
    <mxGraphModel dx="396" dy="590" grid="1" gridSize="10" guides="1" tooltips="1" connect="1" arrows="1" fold="1" page="1" pageScale="1" pageWidth="827" pageHeight="1169" math="0" shadow="0">
      <root>
        <mxCell id="0" />
        <mxCell id="1" parent="0" />
        <mxCell id="6HWCoCxGL5TKoMprZ8HP-1" value="Materia(&lt;u&gt;Codigo&lt;/u&gt;, nombre)" style="text;html=1;align=left;verticalAlign=middle;resizable=0;points=[];autosize=1;strokeColor=none;fillColor=none;" vertex="1" parent="1">
          <mxGeometry x="180" y="160" width="160" height="30" as="geometry" />
        </mxCell>
        <mxCell id="6HWCoCxGL5TKoMprZ8HP-2" value="Profesor(&lt;u&gt;ID&lt;/u&gt;, nombre, titulo)" style="text;html=1;align=left;verticalAlign=middle;resizable=0;points=[];autosize=1;strokeColor=none;fillColor=none;" vertex="1" parent="1">
          <mxGeometry x="180" y="258" width="170" height="30" as="geometry" />
        </mxCell>
        <mxCell id="6HWCoCxGL5TKoMprZ8HP-3" value="Aula(&lt;u&gt;Nombre&lt;/u&gt;, Piso, Capacidad)" style="text;html=1;align=left;verticalAlign=middle;resizable=0;points=[];autosize=1;strokeColor=none;fillColor=none;" vertex="1" parent="1">
          <mxGeometry x="180" y="360" width="190" height="30" as="geometry" />
        </mxCell>
        <mxCell id="6HWCoCxGL5TKoMprZ8HP-4" value="Dicta(&lt;u&gt;CodigoM, IDP, NombreA&lt;/u&gt;, Periodo)" style="text;html=1;align=left;verticalAlign=middle;resizable=0;points=[];autosize=1;strokeColor=none;fillColor=none;" vertex="1" parent="1">
          <mxGeometry x="180" y="458" width="240" height="30" as="geometry" />
        </mxCell>
        <mxCell id="Ylkjg_tSfk_VQ4_uzfle-1" value="FK" style="text;html=1;align=left;verticalAlign=middle;resizable=0;points=[];autosize=1;strokeColor=none;fillColor=none;" vertex="1" parent="1">
          <mxGeometry x="215" y="488" width="40" height="30" as="geometry" />
        </mxCell>
        <mxCell id="Ylkjg_tSfk_VQ4_uzfle-2" value="Modificacion: Cascada&lt;div&gt;Borrado: No Action&lt;/div&gt;" style="text;html=1;align=left;verticalAlign=middle;resizable=0;points=[];autosize=1;strokeColor=none;fillColor=none;" vertex="1" parent="1">
          <mxGeometry x="134" y="510" width="140" height="40" as="geometry" />
        </mxCell>
        <mxCell id="Ylkjg_tSfk_VQ4_uzfle-3" value="FK" style="text;html=1;align=left;verticalAlign=middle;resizable=0;points=[];autosize=1;strokeColor=none;fillColor=none;" vertex="1" parent="1">
          <mxGeometry x="255" y="488" width="40" height="30" as="geometry" />
        </mxCell>
        <mxCell id="Ylkjg_tSfk_VQ4_uzfle-4" value="Modificacion: Cascada&lt;div&gt;Borrado: No Action&lt;/div&gt;" style="text;html=1;align=left;verticalAlign=middle;resizable=0;points=[];autosize=1;strokeColor=none;fillColor=none;" vertex="1" parent="1">
          <mxGeometry x="290" y="488" width="140" height="40" as="geometry" />
        </mxCell>
        <mxCell id="Ylkjg_tSfk_VQ4_uzfle-5" value="FK" style="text;html=1;align=left;verticalAlign=middle;resizable=0;points=[];autosize=1;strokeColor=none;fillColor=none;" vertex="1" parent="1">
          <mxGeometry x="300" y="433" width="40" height="30" as="geometry" />
        </mxCell>
        <mxCell id="Ylkjg_tSfk_VQ4_uzfle-6" value="Modificacion: Cascada&lt;div&gt;Borrado: No Action&lt;/div&gt;" style="text;html=1;align=left;verticalAlign=middle;resizable=0;points=[];autosize=1;strokeColor=none;fillColor=none;" vertex="1" parent="1">
          <mxGeometry x="330" y="423" width="140" height="40" as="geometry" />
        </mxCell>
        <mxCell id="Ylkjg_tSfk_VQ4_uzfle-7" value="" style="endArrow=classic;html=1;rounded=0;exitX=0.038;exitY=0.334;exitDx=0;exitDy=0;exitPerimeter=0;entryX=-0.022;entryY=0.476;entryDx=0;entryDy=0;entryPerimeter=0;" edge="1" parent="1" source="Ylkjg_tSfk_VQ4_uzfle-1" target="6HWCoCxGL5TKoMprZ8HP-1">
          <mxGeometry width="50" height="50" relative="1" as="geometry">
            <mxPoint x="210" y="460" as="sourcePoint" />
            <mxPoint x="260" y="410" as="targetPoint" />
            <Array as="points">
              <mxPoint x="80" y="460" />
            </Array>
          </mxGeometry>
        </mxCell>
        <mxCell id="Ylkjg_tSfk_VQ4_uzfle-8" value="" style="endArrow=classic;html=1;rounded=0;exitX=0.038;exitY=0.459;exitDx=0;exitDy=0;exitPerimeter=0;entryX=0.08;entryY=0.976;entryDx=0;entryDy=0;entryPerimeter=0;" edge="1" parent="1" source="Ylkjg_tSfk_VQ4_uzfle-5" target="6HWCoCxGL5TKoMprZ8HP-3">
          <mxGeometry width="50" height="50" relative="1" as="geometry">
            <mxPoint x="210" y="460" as="sourcePoint" />
            <mxPoint x="260" y="410" as="targetPoint" />
          </mxGeometry>
        </mxCell>
        <mxCell id="Ylkjg_tSfk_VQ4_uzfle-9" value="" style="endArrow=classic;html=1;rounded=0;exitX=0.413;exitY=1.084;exitDx=0;exitDy=0;exitPerimeter=0;entryX=0.847;entryY=0.959;entryDx=0;entryDy=0;entryPerimeter=0;" edge="1" parent="1" source="Ylkjg_tSfk_VQ4_uzfle-3" target="6HWCoCxGL5TKoMprZ8HP-2">
          <mxGeometry width="50" height="50" relative="1" as="geometry">
            <mxPoint x="340" y="460" as="sourcePoint" />
            <mxPoint x="390" y="410" as="targetPoint" />
            <Array as="points">
              <mxPoint x="510" y="540" />
              <mxPoint x="520" y="410" />
            </Array>
          </mxGeometry>
        </mxCell>
      </root>
    </mxGraphModel>
  </diagram>
  <diagram id="U-GeFr3-7yKJCnCRGlOX" name="Página-5">
    <mxGraphModel dx="1319" dy="641" grid="1" gridSize="10" guides="1" tooltips="1" connect="1" arrows="1" fold="1" page="1" pageScale="1" pageWidth="827" pageHeight="1169" math="0" shadow="0">
      <root>
        <mxCell id="0" />
        <mxCell id="1" parent="0" />
        <mxCell id="N7UilWF9PHEMAHlihtuK-2" value="Financiera(&lt;u&gt;ID&lt;/u&gt;, Nombre)" style="text;html=1;align=left;verticalAlign=middle;resizable=0;points=[];autosize=1;strokeColor=none;fillColor=none;" parent="1" vertex="1">
          <mxGeometry x="150" y="28" width="150" height="30" as="geometry" />
        </mxCell>
        <mxCell id="N7UilWF9PHEMAHlihtuK-3" value="Proyecto(&lt;u&gt;ID&lt;/u&gt;, Descripcion, Presupuesto, FechaF, FechaI, Nombre)" style="text;html=1;align=left;verticalAlign=middle;resizable=0;points=[];autosize=1;strokeColor=none;fillColor=none;" parent="1" vertex="1">
          <mxGeometry x="160" y="270" width="370" height="30" as="geometry" />
        </mxCell>
        <mxCell id="N7UilWF9PHEMAHlihtuK-4" value="Financia(&lt;u&gt;IDF,IDProyecto&lt;/u&gt;)" style="text;html=1;align=left;verticalAlign=middle;resizable=0;points=[];autosize=1;strokeColor=none;fillColor=none;" parent="1" vertex="1">
          <mxGeometry x="150" y="170" width="160" height="30" as="geometry" />
        </mxCell>
        <mxCell id="N7UilWF9PHEMAHlihtuK-5" value="Alumnos(&lt;u&gt;DNI&lt;/u&gt;, Telefono,Mail,Nombre,Apellido,FecgaIngFac,Carrera,DniAlumno,FechaI, FechaF, IDProyecto)" style="text;html=1;align=left;verticalAlign=middle;resizable=0;points=[];autosize=1;strokeColor=none;fillColor=none;" parent="1" vertex="1">
          <mxGeometry x="150" y="348" width="600" height="30" as="geometry" />
        </mxCell>
        <mxCell id="GL0KtAJhFfo6Ljjtvykf-15" style="edgeStyle=orthogonalEdgeStyle;rounded=0;orthogonalLoop=1;jettySize=auto;html=1;entryX=0.051;entryY=-0.089;entryDx=0;entryDy=0;entryPerimeter=0;" parent="1" source="N7UilWF9PHEMAHlihtuK-6" target="N7UilWF9PHEMAHlihtuK-5" edge="1">
          <mxGeometry relative="1" as="geometry">
            <mxPoint x="180" y="330" as="targetPoint" />
            <Array as="points">
              <mxPoint x="351" y="343" />
              <mxPoint x="351" y="310" />
              <mxPoint x="181" y="310" />
            </Array>
          </mxGeometry>
        </mxCell>
        <mxCell id="N7UilWF9PHEMAHlihtuK-6" value="FK" style="text;html=1;align=center;verticalAlign=middle;resizable=0;points=[];autosize=1;strokeColor=none;fillColor=none;" parent="1" vertex="1">
          <mxGeometry x="520" y="328" width="40" height="30" as="geometry" />
        </mxCell>
        <mxCell id="GL0KtAJhFfo6Ljjtvykf-16" style="edgeStyle=orthogonalEdgeStyle;rounded=0;orthogonalLoop=1;jettySize=auto;html=1;entryX=0.963;entryY=-0.044;entryDx=0;entryDy=0;entryPerimeter=0;" parent="1" source="N7UilWF9PHEMAHlihtuK-7" target="N7UilWF9PHEMAHlihtuK-3" edge="1">
          <mxGeometry relative="1" as="geometry">
            <mxPoint x="517.42" y="248.67999999999995" as="targetPoint" />
            <Array as="points">
              <mxPoint x="820" y="385" />
              <mxPoint x="820" y="180" />
              <mxPoint x="516" y="180" />
            </Array>
          </mxGeometry>
        </mxCell>
        <mxCell id="N7UilWF9PHEMAHlihtuK-7" value="FK" style="text;html=1;align=center;verticalAlign=middle;resizable=0;points=[];autosize=1;strokeColor=none;fillColor=none;" parent="1" vertex="1">
          <mxGeometry x="670" y="370" width="40" height="30" as="geometry" />
        </mxCell>
        <mxCell id="N7UilWF9PHEMAHlihtuK-8" value="FK" style="text;html=1;align=center;verticalAlign=middle;resizable=0;points=[];autosize=1;strokeColor=none;fillColor=none;" parent="1" vertex="1">
          <mxGeometry x="190" y="150" width="40" height="30" as="geometry" />
        </mxCell>
        <mxCell id="N7UilWF9PHEMAHlihtuK-9" value="FK" style="text;html=1;align=center;verticalAlign=middle;resizable=0;points=[];autosize=1;strokeColor=none;fillColor=none;" parent="1" vertex="1">
          <mxGeometry x="230" y="200" width="40" height="30" as="geometry" />
        </mxCell>
        <mxCell id="N7UilWF9PHEMAHlihtuK-10" value="NoDoctores(&lt;u&gt;DNI&lt;/u&gt;, Telefono, Mail, Nombre, Apellido, FechaIngreso, Depta, DNIDoctor, NombreDoctor, FechaInicio, FechaFinalizacion)&amp;nbsp;" style="text;html=1;align=left;verticalAlign=middle;resizable=0;points=[];autosize=1;strokeColor=none;fillColor=none;" parent="1" vertex="1">
          <mxGeometry x="150" y="460" width="730" height="30" as="geometry" />
        </mxCell>
        <mxCell id="N7UilWF9PHEMAHlihtuK-11" value="&lt;span style=&quot;background-color: light-dark(#ffffff, var(--ge-dark-color, #121212));&quot;&gt;&lt;span style=&quot;color: rgb(255, 255, 255); font-family: Helvetica; font-size: 12px; font-style: normal; font-variant-ligatures: normal; font-variant-caps: normal; font-weight: 400; letter-spacing: normal; orphans: 2; text-align: left; text-indent: 0px; text-transform: none; widows: 2; word-spacing: 0px; -webkit-text-stroke-width: 0px; white-space: nowrap; text-decoration-thickness: initial; text-decoration-style: initial; text-decoration-color: initial; float: none; display: inline !important;&quot;&gt;Doctores(&lt;/span&gt;&lt;u style=&quot;forced-color-adjust: none; color: rgb(255, 255, 255); font-family: Helvetica; font-size: 12px; font-style: normal; font-variant-ligatures: normal; font-variant-caps: normal; font-weight: 400; letter-spacing: normal; orphans: 2; text-align: left; text-indent: 0px; text-transform: none; widows: 2; word-spacing: 0px; -webkit-text-stroke-width: 0px; white-space: nowrap; box-shadow: none !important;&quot;&gt;DNI&lt;/u&gt;&lt;span style=&quot;color: rgb(255, 255, 255); font-family: Helvetica; font-size: 12px; font-style: normal; font-variant-ligatures: normal; font-variant-caps: normal; font-weight: 400; letter-spacing: normal; orphans: 2; text-align: left; text-indent: 0px; text-transform: none; widows: 2; word-spacing: 0px; -webkit-text-stroke-width: 0px; white-space: nowrap; text-decoration-thickness: initial; text-decoration-style: initial; text-decoration-color: initial; float: none; display: inline !important;&quot;&gt;, Telefono, Mail, Nombre, Apellido, FechaIngreso, Depta, UnivDeObtencion,TituloDoctoral, FechaObtencion)&lt;/span&gt;&lt;/span&gt;" style="text;whiteSpace=wrap;html=1;" parent="1" vertex="1">
          <mxGeometry x="150" y="560" width="400" height="40" as="geometry" />
        </mxCell>
        <mxCell id="GL0KtAJhFfo6Ljjtvykf-17" style="edgeStyle=orthogonalEdgeStyle;rounded=0;orthogonalLoop=1;jettySize=auto;html=1;" parent="1" source="N7UilWF9PHEMAHlihtuK-12" edge="1">
          <mxGeometry relative="1" as="geometry">
            <mxPoint x="770" y="560" as="targetPoint" />
            <Array as="points">
              <mxPoint x="970" y="455" />
              <mxPoint x="970" y="550" />
            </Array>
          </mxGeometry>
        </mxCell>
        <mxCell id="N7UilWF9PHEMAHlihtuK-12" value="FK" style="text;html=1;align=center;verticalAlign=middle;resizable=0;points=[];autosize=1;strokeColor=none;fillColor=none;" parent="1" vertex="1">
          <mxGeometry x="550" y="440" width="40" height="30" as="geometry" />
        </mxCell>
        <mxCell id="N7UilWF9PHEMAHlihtuK-13" value="Trabaja(&lt;u&gt;DNIP,IDProyecto&lt;/u&gt;, FechaInicio, FechaFinalizacion)" style="text;html=1;align=left;verticalAlign=middle;resizable=0;points=[];autosize=1;strokeColor=none;fillColor=none;" parent="1" vertex="1">
          <mxGeometry x="150" y="638" width="330" height="30" as="geometry" />
        </mxCell>
        <mxCell id="GL0KtAJhFfo6Ljjtvykf-11" style="edgeStyle=orthogonalEdgeStyle;rounded=0;orthogonalLoop=1;jettySize=auto;html=1;entryX=0;entryY=0.25;entryDx=0;entryDy=0;" parent="1" source="N7UilWF9PHEMAHlihtuK-14" target="N7UilWF9PHEMAHlihtuK-11" edge="1">
          <mxGeometry relative="1" as="geometry">
            <mxPoint x="100.00000000000006" y="570" as="targetPoint" />
            <Array as="points">
              <mxPoint x="90" y="635" />
              <mxPoint x="90" y="570" />
            </Array>
          </mxGeometry>
        </mxCell>
        <mxCell id="GL0KtAJhFfo6Ljjtvykf-12" style="edgeStyle=orthogonalEdgeStyle;rounded=0;orthogonalLoop=1;jettySize=auto;html=1;entryX=-0.005;entryY=0.363;entryDx=0;entryDy=0;entryPerimeter=0;" parent="1" source="N7UilWF9PHEMAHlihtuK-14" target="N7UilWF9PHEMAHlihtuK-10" edge="1">
          <mxGeometry relative="1" as="geometry">
            <mxPoint x="30" y="470" as="targetPoint" />
            <Array as="points">
              <mxPoint x="20" y="635" />
              <mxPoint x="20" y="471" />
            </Array>
          </mxGeometry>
        </mxCell>
        <mxCell id="N7UilWF9PHEMAHlihtuK-14" value="FK" style="text;html=1;align=center;verticalAlign=middle;resizable=0;points=[];autosize=1;strokeColor=none;fillColor=none;" parent="1" vertex="1">
          <mxGeometry x="190" y="620" width="40" height="30" as="geometry" />
        </mxCell>
        <mxCell id="GL0KtAJhFfo6Ljjtvykf-13" style="edgeStyle=orthogonalEdgeStyle;rounded=0;orthogonalLoop=1;jettySize=auto;html=1;entryX=0.002;entryY=0.437;entryDx=0;entryDy=0;entryPerimeter=0;" parent="1" source="N7UilWF9PHEMAHlihtuK-15" target="N7UilWF9PHEMAHlihtuK-3" edge="1">
          <mxGeometry relative="1" as="geometry">
            <mxPoint x="140" y="280" as="targetPoint" />
            <Array as="points">
              <mxPoint x="40" y="675" />
              <mxPoint x="40" y="280" />
              <mxPoint x="150" y="280" />
              <mxPoint x="150" y="283" />
            </Array>
          </mxGeometry>
        </mxCell>
        <mxCell id="N7UilWF9PHEMAHlihtuK-15" value="FK" style="text;html=1;align=center;verticalAlign=middle;resizable=0;points=[];autosize=1;strokeColor=none;fillColor=none;" parent="1" vertex="1">
          <mxGeometry x="240" y="660" width="40" height="30" as="geometry" />
        </mxCell>
        <mxCell id="N7UilWF9PHEMAHlihtuK-16" value="Realiza(&lt;u&gt;IDPublicación,DNI)&lt;/u&gt;" style="text;html=1;align=left;verticalAlign=middle;resizable=0;points=[];autosize=1;strokeColor=none;fillColor=none;" parent="1" vertex="1">
          <mxGeometry x="150" y="748" width="170" height="30" as="geometry" />
        </mxCell>
        <mxCell id="GL0KtAJhFfo6Ljjtvykf-5" style="edgeStyle=orthogonalEdgeStyle;rounded=0;orthogonalLoop=1;jettySize=auto;html=1;entryX=0;entryY=0.5;entryDx=0;entryDy=0;" parent="1" source="N7UilWF9PHEMAHlihtuK-17" target="GL0KtAJhFfo6Ljjtvykf-2" edge="1">
          <mxGeometry relative="1" as="geometry">
            <mxPoint x="110" y="970" as="targetPoint" />
            <Array as="points">
              <mxPoint x="80" y="745" />
              <mxPoint x="80" y="970" />
            </Array>
          </mxGeometry>
        </mxCell>
        <mxCell id="GL0KtAJhFfo6Ljjtvykf-6" style="edgeStyle=orthogonalEdgeStyle;rounded=0;orthogonalLoop=1;jettySize=auto;html=1;entryX=0;entryY=0.667;entryDx=0;entryDy=0;entryPerimeter=0;" parent="1" source="N7UilWF9PHEMAHlihtuK-17" target="GL0KtAJhFfo6Ljjtvykf-1" edge="1">
          <mxGeometry relative="1" as="geometry">
            <mxPoint x="120" y="890" as="targetPoint" />
            <Array as="points">
              <mxPoint x="80" y="745" />
              <mxPoint x="80" y="890" />
            </Array>
          </mxGeometry>
        </mxCell>
        <mxCell id="N7UilWF9PHEMAHlihtuK-17" value="FK" style="text;html=1;align=center;verticalAlign=middle;resizable=0;points=[];autosize=1;strokeColor=none;fillColor=none;" parent="1" vertex="1">
          <mxGeometry x="205" y="730" width="40" height="30" as="geometry" />
        </mxCell>
        <mxCell id="GL0KtAJhFfo6Ljjtvykf-8" style="edgeStyle=orthogonalEdgeStyle;rounded=0;orthogonalLoop=1;jettySize=auto;html=1;exitX=1.019;exitY=0.319;exitDx=0;exitDy=0;exitPerimeter=0;" parent="1" source="N7UilWF9PHEMAHlihtuK-18" edge="1">
          <mxGeometry relative="1" as="geometry">
            <mxPoint x="800" y="575.5" as="targetPoint" />
            <mxPoint x="290" y="790.5" as="sourcePoint" />
            <Array as="points">
              <mxPoint x="301" y="791" />
              <mxPoint x="840" y="791" />
              <mxPoint x="840" y="576" />
            </Array>
          </mxGeometry>
        </mxCell>
        <mxCell id="GL0KtAJhFfo6Ljjtvykf-9" style="edgeStyle=orthogonalEdgeStyle;rounded=0;orthogonalLoop=1;jettySize=auto;html=1;" parent="1" source="N7UilWF9PHEMAHlihtuK-18" target="N7UilWF9PHEMAHlihtuK-10" edge="1">
          <mxGeometry relative="1" as="geometry">
            <mxPoint x="900" y="480" as="targetPoint" />
            <Array as="points">
              <mxPoint x="930" y="793" />
              <mxPoint x="930" y="480" />
            </Array>
          </mxGeometry>
        </mxCell>
        <mxCell id="GL0KtAJhFfo6Ljjtvykf-10" style="edgeStyle=orthogonalEdgeStyle;rounded=0;orthogonalLoop=1;jettySize=auto;html=1;entryX=0.999;entryY=0.393;entryDx=0;entryDy=0;entryPerimeter=0;" parent="1" target="N7UilWF9PHEMAHlihtuK-5" edge="1">
          <mxGeometry relative="1" as="geometry">
            <mxPoint x="1010" y="360" as="targetPoint" />
            <mxPoint x="290" y="773" as="sourcePoint" />
            <Array as="points">
              <mxPoint x="1020" y="773" />
              <mxPoint x="1020" y="360" />
            </Array>
          </mxGeometry>
        </mxCell>
        <mxCell id="N7UilWF9PHEMAHlihtuK-18" value="FK" style="text;html=1;align=center;verticalAlign=middle;resizable=0;points=[];autosize=1;strokeColor=none;fillColor=none;" parent="1" vertex="1">
          <mxGeometry x="260" y="778" width="40" height="30" as="geometry" />
        </mxCell>
        <mxCell id="GL0KtAJhFfo6Ljjtvykf-1" value="Congreso(&lt;u&gt;ID&lt;/u&gt;, Titulo, Ciudad, Nombre, Pais, Fecha, NomAuspiciantes)" style="text;html=1;align=left;verticalAlign=middle;resizable=0;points=[];autosize=1;strokeColor=none;fillColor=none;" parent="1" vertex="1">
          <mxGeometry x="150" y="870" width="400" height="30" as="geometry" />
        </mxCell>
        <mxCell id="GL0KtAJhFfo6Ljjtvykf-2" value="&lt;span style=&quot;color: rgb(255, 255, 255); font-family: Helvetica; font-size: 12px; font-style: normal; font-variant-ligatures: normal; font-variant-caps: normal; font-weight: 400; letter-spacing: normal; orphans: 2; text-align: left; text-indent: 0px; text-transform: none; widows: 2; word-spacing: 0px; -webkit-text-stroke-width: 0px; white-space: nowrap; text-decoration-thickness: initial; text-decoration-style: initial; text-decoration-color: initial; float: none; display: inline !important;&quot;&gt;Revista(&lt;/span&gt;&lt;u style=&quot;forced-color-adjust: none; color: rgb(255, 255, 255); font-family: Helvetica; font-size: 12px; font-style: normal; font-variant-ligatures: normal; font-variant-caps: normal; font-weight: 400; letter-spacing: normal; orphans: 2; text-align: left; text-indent: 0px; text-transform: none; widows: 2; word-spacing: 0px; -webkit-text-stroke-width: 0px; white-space: nowrap; box-shadow: none !important;&quot;&gt;ID&lt;/u&gt;&lt;span style=&quot;color: rgb(255, 255, 255); font-family: Helvetica; font-size: 12px; font-style: normal; font-variant-ligatures: normal; font-variant-caps: normal; font-weight: 400; letter-spacing: normal; orphans: 2; text-align: left; text-indent: 0px; text-transform: none; widows: 2; word-spacing: 0px; -webkit-text-stroke-width: 0px; white-space: nowrap; text-decoration-thickness: initial; text-decoration-style: initial; text-decoration-color: initial; float: none; display: inline !important;&quot;&gt;, Titulo, FechaPublicacion, NumPaginas)&lt;/span&gt;" style="text;whiteSpace=wrap;html=1;labelBackgroundColor=default;" parent="1" vertex="1">
          <mxGeometry x="150" y="950" width="400" height="40" as="geometry" />
        </mxCell>
        <mxCell id="GL0KtAJhFfo6Ljjtvykf-18" style="edgeStyle=orthogonalEdgeStyle;rounded=0;orthogonalLoop=1;jettySize=auto;html=1;entryX=0.036;entryY=1.025;entryDx=0;entryDy=0;entryPerimeter=0;" parent="1" source="N7UilWF9PHEMAHlihtuK-8" target="N7UilWF9PHEMAHlihtuK-2" edge="1">
          <mxGeometry relative="1" as="geometry" />
        </mxCell>
        <mxCell id="GL0KtAJhFfo6Ljjtvykf-19" style="edgeStyle=orthogonalEdgeStyle;rounded=0;orthogonalLoop=1;jettySize=auto;html=1;entryX=0.034;entryY=0.122;entryDx=0;entryDy=0;entryPerimeter=0;" parent="1" source="N7UilWF9PHEMAHlihtuK-9" target="N7UilWF9PHEMAHlihtuK-3" edge="1">
          <mxGeometry relative="1" as="geometry" />
        </mxCell>
        <mxCell id="OpYheGKFXfrVQ8mWpZZa-1" value="Modificacion y Borrado: NoAction" style="text;html=1;align=center;verticalAlign=middle;resizable=0;points=[];autosize=1;strokeColor=none;fillColor=none;" parent="1" vertex="1">
          <mxGeometry x="230" y="150" width="200" height="30" as="geometry" />
        </mxCell>
        <mxCell id="OpYheGKFXfrVQ8mWpZZa-2" value="Modificacion y Borrado: NoAction" style="text;html=1;align=center;verticalAlign=middle;resizable=0;points=[];autosize=1;strokeColor=none;fillColor=none;" parent="1" vertex="1">
          <mxGeometry x="260" y="200" width="200" height="30" as="geometry" />
        </mxCell>
        <mxCell id="OpYheGKFXfrVQ8mWpZZa-3" value="Modificacion y Borrado: NoAction" style="text;html=1;align=center;verticalAlign=middle;resizable=0;points=[];autosize=1;strokeColor=none;fillColor=none;" parent="1" vertex="1">
          <mxGeometry x="600" y="390" width="200" height="30" as="geometry" />
        </mxCell>
        <mxCell id="OpYheGKFXfrVQ8mWpZZa-4" value="Modificacion: Cascada y Borrado: NoAction" style="text;html=1;align=left;verticalAlign=middle;resizable=0;points=[];autosize=1;strokeColor=none;fillColor=none;" parent="1" vertex="1">
          <mxGeometry x="480" y="420" width="250" height="30" as="geometry" />
        </mxCell>
        <mxCell id="OpYheGKFXfrVQ8mWpZZa-5" value="Modificacion: Cascada&amp;nbsp; y Borrado: Set Null" style="text;html=1;align=center;verticalAlign=middle;resizable=0;points=[];autosize=1;strokeColor=none;fillColor=none;" parent="1" vertex="1">
          <mxGeometry x="415" y="310" width="250" height="30" as="geometry" />
        </mxCell>
        <mxCell id="OpYheGKFXfrVQ8mWpZZa-7" value="Modificacion y Borrado: NoAction" style="text;html=1;align=center;verticalAlign=middle;resizable=0;points=[];autosize=1;strokeColor=none;fillColor=none;" parent="1" vertex="1">
          <mxGeometry x="190" y="808" width="200" height="30" as="geometry" />
        </mxCell>
        <mxCell id="OpYheGKFXfrVQ8mWpZZa-8" value="Modificacion: Cascada y Borrado: NoAction" style="text;html=1;align=center;verticalAlign=middle;resizable=0;points=[];autosize=1;strokeColor=none;fillColor=none;" parent="1" vertex="1">
          <mxGeometry x="95" y="600" width="250" height="30" as="geometry" />
        </mxCell>
        <mxCell id="OpYheGKFXfrVQ8mWpZZa-9" value="Modificacion y Borrado: NoAction" style="text;html=1;align=center;verticalAlign=middle;resizable=0;points=[];autosize=1;strokeColor=none;fillColor=none;" parent="1" vertex="1">
          <mxGeometry x="135" y="710" width="200" height="30" as="geometry" />
        </mxCell>
        <mxCell id="OpYheGKFXfrVQ8mWpZZa-10" value="&lt;span style=&quot;color: rgb(255, 255, 255); font-family: Helvetica; font-size: 12px; font-style: normal; font-variant-ligatures: normal; font-variant-caps: normal; font-weight: 400; letter-spacing: normal; orphans: 2; text-align: center; text-indent: 0px; text-transform: none; widows: 2; word-spacing: 0px; -webkit-text-stroke-width: 0px; white-space: nowrap; text-decoration-thickness: initial; text-decoration-style: initial; text-decoration-color: initial; float: none; display: inline !important;&quot;&gt;Modificacion: Cascada y Borrado: NoAction&lt;/span&gt;" style="text;whiteSpace=wrap;html=1;labelBackgroundColor=default;" parent="1" vertex="1">
          <mxGeometry x="170" y="680" width="260" height="40" as="geometry" />
        </mxCell>
      </root>
    </mxGraphModel>
  </diagram>
  <diagram id="g67z8BN9iGSIqV93U4l9" name="Página-6">
    <mxGraphModel dx="1319" dy="641" grid="1" gridSize="10" guides="1" tooltips="1" connect="1" arrows="1" fold="1" page="1" pageScale="1" pageWidth="827" pageHeight="1169" math="0" shadow="0">
      <root>
        <mxCell id="0" />
        <mxCell id="1" parent="0" />
        <mxCell id="Zc2Bi3yOyA4-N0WJPTVe-1" value="Bailarín (Provincia, NombreCompleto,&amp;nbsp;&lt;u&gt;DNI&lt;/u&gt;&lt;i&gt;, &lt;/i&gt;FechaNac, IDNivel, IDCat)" style="text;html=1;align=left;verticalAlign=middle;resizable=0;points=[];autosize=1;strokeColor=none;fillColor=none;" parent="1" vertex="1">
          <mxGeometry x="55" y="45" width="400" height="30" as="geometry" />
        </mxCell>
        <mxCell id="q-PneZ8F5QGN0kMSqdm3-2" value="Grupo(&lt;u&gt;ID,NombreDirector&lt;/u&gt;, CantIntegrantes, Provincia)" style="text;html=1;align=left;verticalAlign=middle;resizable=0;points=[];autosize=1;strokeColor=none;fillColor=none;" vertex="1" parent="1">
          <mxGeometry x="50" y="240" width="310" height="30" as="geometry" />
        </mxCell>
        <mxCell id="q-PneZ8F5QGN0kMSqdm3-3" value="EscuelaBaile(&lt;u&gt;NombreDirector&lt;/u&gt;, Dirección, Nombre, Provincia)" style="text;html=1;align=left;verticalAlign=middle;resizable=0;points=[];autosize=1;strokeColor=none;fillColor=none;" vertex="1" parent="1">
          <mxGeometry x="50" y="390" width="350" height="30" as="geometry" />
        </mxCell>
        <mxCell id="q-PneZ8F5QGN0kMSqdm3-4" value="Niveles(&lt;u&gt;ID&lt;/u&gt;, Nombre)" style="text;html=1;align=left;verticalAlign=middle;resizable=0;points=[];autosize=1;strokeColor=none;fillColor=none;" vertex="1" parent="1">
          <mxGeometry x="50" y="470" width="130" height="30" as="geometry" />
        </mxCell>
        <mxCell id="q-PneZ8F5QGN0kMSqdm3-5" value="Categoria(&lt;u&gt;ID&lt;/u&gt;, Nombre)" style="text;html=1;align=left;verticalAlign=middle;resizable=0;points=[];autosize=1;strokeColor=none;fillColor=none;" vertex="1" parent="1">
          <mxGeometry x="50" y="520" width="140" height="30" as="geometry" />
        </mxCell>
        <mxCell id="q-PneZ8F5QGN0kMSqdm3-6" value="Coreografia(&lt;u&gt;IDCoreo,IDCat,IDNivel&lt;/u&gt;, Duracion, NombreCancion, PuntajeMinimo, PuntajeF)" style="text;html=1;align=left;verticalAlign=middle;resizable=0;points=[];autosize=1;strokeColor=none;fillColor=none;" vertex="1" parent="1">
          <mxGeometry x="50" y="585" width="500" height="30" as="geometry" />
        </mxCell>
        <mxCell id="q-PneZ8F5QGN0kMSqdm3-7" value="Pertenece(&lt;u&gt;IDGrupo, DNI&lt;/u&gt;)" style="text;html=1;align=left;verticalAlign=middle;resizable=0;points=[];autosize=1;strokeColor=none;fillColor=none;" vertex="1" parent="1">
          <mxGeometry x="50" y="110" width="160" height="30" as="geometry" />
        </mxCell>
        <mxCell id="q-PneZ8F5QGN0kMSqdm3-8" value="Jurado(&lt;u&gt;DNI&lt;/u&gt;, Provincia, Titulo, Nombre)" style="text;html=1;align=left;verticalAlign=middle;resizable=0;points=[];autosize=1;strokeColor=none;fillColor=none;" vertex="1" parent="1">
          <mxGeometry x="55" y="740" width="230" height="30" as="geometry" />
        </mxCell>
        <mxCell id="q-PneZ8F5QGN0kMSqdm3-9" value="Puntúa(&lt;u&gt;DNIJurado,IDCoreo&lt;/u&gt;, Puntaje)" style="text;html=1;align=left;verticalAlign=middle;resizable=0;points=[];autosize=1;strokeColor=none;fillColor=none;" vertex="1" parent="1">
          <mxGeometry x="50" y="668" width="220" height="30" as="geometry" />
        </mxCell>
        <mxCell id="q-PneZ8F5QGN0kMSqdm3-10" value="NombreDeIntegrantes(&lt;u&gt;IDGrupo,Nombre)&lt;/u&gt;" style="text;html=1;align=left;verticalAlign=middle;resizable=0;points=[];autosize=1;strokeColor=none;fillColor=none;" vertex="1" parent="1">
          <mxGeometry x="50" y="308" width="240" height="30" as="geometry" />
        </mxCell>
        <mxCell id="q-PneZ8F5QGN0kMSqdm3-32" style="edgeStyle=orthogonalEdgeStyle;rounded=0;orthogonalLoop=1;jettySize=auto;html=1;" edge="1" parent="1" source="q-PneZ8F5QGN0kMSqdm3-11">
          <mxGeometry relative="1" as="geometry">
            <mxPoint x="70" y="240" as="targetPoint" />
            <Array as="points">
              <mxPoint x="30" y="105" />
              <mxPoint x="30" y="210" />
            </Array>
          </mxGeometry>
        </mxCell>
        <mxCell id="q-PneZ8F5QGN0kMSqdm3-11" value="FK" style="text;html=1;align=left;verticalAlign=middle;resizable=0;points=[];autosize=1;strokeColor=none;fillColor=none;" vertex="1" parent="1">
          <mxGeometry x="120" y="90" width="40" height="30" as="geometry" />
        </mxCell>
        <mxCell id="q-PneZ8F5QGN0kMSqdm3-31" style="edgeStyle=orthogonalEdgeStyle;rounded=0;orthogonalLoop=1;jettySize=auto;html=1;entryX=0;entryY=0.333;entryDx=0;entryDy=0;entryPerimeter=0;exitX=-0.017;exitY=0.489;exitDx=0;exitDy=0;exitPerimeter=0;" edge="1" parent="1" source="q-PneZ8F5QGN0kMSqdm3-12" target="Zc2Bi3yOyA4-N0WJPTVe-1">
          <mxGeometry relative="1" as="geometry">
            <mxPoint x="20" y="55" as="targetPoint" />
            <mxPoint x="160" y="160" as="sourcePoint" />
            <Array as="points">
              <mxPoint x="159" y="160" />
              <mxPoint x="10" y="160" />
              <mxPoint x="10" y="55" />
            </Array>
          </mxGeometry>
        </mxCell>
        <mxCell id="q-PneZ8F5QGN0kMSqdm3-12" value="FK" style="text;html=1;align=left;verticalAlign=middle;resizable=0;points=[];autosize=1;strokeColor=none;fillColor=none;" vertex="1" parent="1">
          <mxGeometry x="160" y="130" width="40" height="30" as="geometry" />
        </mxCell>
        <mxCell id="q-PneZ8F5QGN0kMSqdm3-33" style="edgeStyle=orthogonalEdgeStyle;rounded=0;orthogonalLoop=1;jettySize=auto;html=1;entryX=1;entryY=-0.022;entryDx=0;entryDy=0;entryPerimeter=0;" edge="1" parent="1" source="q-PneZ8F5QGN0kMSqdm3-13" target="q-PneZ8F5QGN0kMSqdm3-5">
          <mxGeometry relative="1" as="geometry">
            <mxPoint x="230" y="540" as="targetPoint" />
            <Array as="points">
              <mxPoint x="420" y="510" />
              <mxPoint x="190" y="510" />
            </Array>
          </mxGeometry>
        </mxCell>
        <mxCell id="q-PneZ8F5QGN0kMSqdm3-13" value="FK" style="text;html=1;align=left;verticalAlign=middle;resizable=0;points=[];autosize=1;strokeColor=none;fillColor=none;" vertex="1" parent="1">
          <mxGeometry x="410" y="60" width="40" height="30" as="geometry" />
        </mxCell>
        <mxCell id="q-PneZ8F5QGN0kMSqdm3-35" style="edgeStyle=orthogonalEdgeStyle;rounded=0;orthogonalLoop=1;jettySize=auto;html=1;entryX=1;entryY=0.333;entryDx=0;entryDy=0;entryPerimeter=0;" edge="1" parent="1" source="q-PneZ8F5QGN0kMSqdm3-14" target="q-PneZ8F5QGN0kMSqdm3-4">
          <mxGeometry relative="1" as="geometry">
            <mxPoint x="500" y="480" as="targetPoint" />
            <Array as="points">
              <mxPoint x="710" y="45" />
              <mxPoint x="710" y="480" />
            </Array>
          </mxGeometry>
        </mxCell>
        <mxCell id="q-PneZ8F5QGN0kMSqdm3-14" value="FK" style="text;html=1;align=left;verticalAlign=middle;resizable=0;points=[];autosize=1;strokeColor=none;fillColor=none;" vertex="1" parent="1">
          <mxGeometry x="360" y="30" width="40" height="30" as="geometry" />
        </mxCell>
        <mxCell id="q-PneZ8F5QGN0kMSqdm3-30" style="edgeStyle=orthogonalEdgeStyle;rounded=0;orthogonalLoop=1;jettySize=auto;html=1;" edge="1" parent="1" source="q-PneZ8F5QGN0kMSqdm3-15">
          <mxGeometry relative="1" as="geometry">
            <mxPoint x="40" y="400" as="targetPoint" />
            <Array as="points">
              <mxPoint x="20" y="235" />
              <mxPoint x="20" y="400" />
            </Array>
          </mxGeometry>
        </mxCell>
        <mxCell id="q-PneZ8F5QGN0kMSqdm3-15" value="FK" style="text;html=1;align=left;verticalAlign=middle;resizable=0;points=[];autosize=1;strokeColor=none;fillColor=none;" vertex="1" parent="1">
          <mxGeometry x="130" y="220" width="40" height="30" as="geometry" />
        </mxCell>
        <mxCell id="q-PneZ8F5QGN0kMSqdm3-28" style="edgeStyle=orthogonalEdgeStyle;rounded=0;orthogonalLoop=1;jettySize=auto;html=1;entryX=0;entryY=0.667;entryDx=0;entryDy=0;entryPerimeter=0;" edge="1" parent="1" source="q-PneZ8F5QGN0kMSqdm3-16" target="q-PneZ8F5QGN0kMSqdm3-2">
          <mxGeometry relative="1" as="geometry">
            <mxPoint x="20" y="260" as="targetPoint" />
            <Array as="points">
              <mxPoint x="10" y="305" />
              <mxPoint x="10" y="260" />
            </Array>
          </mxGeometry>
        </mxCell>
        <mxCell id="q-PneZ8F5QGN0kMSqdm3-16" value="FK" style="text;html=1;align=left;verticalAlign=middle;resizable=0;points=[];autosize=1;strokeColor=none;fillColor=none;" vertex="1" parent="1">
          <mxGeometry x="180" y="290" width="40" height="30" as="geometry" />
        </mxCell>
        <mxCell id="q-PneZ8F5QGN0kMSqdm3-24" style="edgeStyle=orthogonalEdgeStyle;rounded=0;orthogonalLoop=1;jettySize=auto;html=1;entryX=-0.002;entryY=0.358;entryDx=0;entryDy=0;entryPerimeter=0;" edge="1" parent="1" source="q-PneZ8F5QGN0kMSqdm3-17" target="q-PneZ8F5QGN0kMSqdm3-4">
          <mxGeometry relative="1" as="geometry">
            <mxPoint x="30" y="480" as="targetPoint" />
            <Array as="points">
              <mxPoint x="20" y="630" />
              <mxPoint x="20" y="481" />
            </Array>
          </mxGeometry>
        </mxCell>
        <mxCell id="q-PneZ8F5QGN0kMSqdm3-17" value="FK" style="text;html=1;align=left;verticalAlign=middle;resizable=0;points=[];autosize=1;strokeColor=none;fillColor=none;" vertex="1" parent="1">
          <mxGeometry x="205" y="615" width="40" height="30" as="geometry" />
        </mxCell>
        <mxCell id="q-PneZ8F5QGN0kMSqdm3-27" style="edgeStyle=orthogonalEdgeStyle;rounded=0;orthogonalLoop=1;jettySize=auto;html=1;entryX=0.286;entryY=1;entryDx=0;entryDy=0;entryPerimeter=0;" edge="1" parent="1" source="q-PneZ8F5QGN0kMSqdm3-18" target="q-PneZ8F5QGN0kMSqdm3-5">
          <mxGeometry relative="1" as="geometry">
            <mxPoint x="90" y="570" as="targetPoint" />
            <Array as="points">
              <mxPoint x="90" y="580" />
            </Array>
          </mxGeometry>
        </mxCell>
        <mxCell id="q-PneZ8F5QGN0kMSqdm3-18" value="FK" style="text;html=1;align=left;verticalAlign=middle;resizable=0;points=[];autosize=1;strokeColor=none;fillColor=none;" vertex="1" parent="1">
          <mxGeometry x="170" y="555" width="40" height="30" as="geometry" />
        </mxCell>
        <mxCell id="q-PneZ8F5QGN0kMSqdm3-21" style="edgeStyle=orthogonalEdgeStyle;rounded=0;orthogonalLoop=1;jettySize=auto;html=1;" edge="1" parent="1" source="q-PneZ8F5QGN0kMSqdm3-19">
          <mxGeometry relative="1" as="geometry">
            <mxPoint x="50" y="760" as="targetPoint" />
            <Array as="points">
              <mxPoint x="10" y="665" />
              <mxPoint x="10" y="760" />
            </Array>
          </mxGeometry>
        </mxCell>
        <mxCell id="q-PneZ8F5QGN0kMSqdm3-19" value="FK" style="text;html=1;align=left;verticalAlign=middle;resizable=0;points=[];autosize=1;strokeColor=none;fillColor=none;" vertex="1" parent="1">
          <mxGeometry x="110" y="650" width="40" height="30" as="geometry" />
        </mxCell>
        <mxCell id="q-PneZ8F5QGN0kMSqdm3-22" style="edgeStyle=orthogonalEdgeStyle;rounded=0;orthogonalLoop=1;jettySize=auto;html=1;" edge="1" parent="1" source="q-PneZ8F5QGN0kMSqdm3-20" target="q-PneZ8F5QGN0kMSqdm3-6">
          <mxGeometry relative="1" as="geometry">
            <mxPoint x="731.3333740234375" y="590" as="targetPoint" />
            <Array as="points">
              <mxPoint x="750" y="705" />
              <mxPoint x="750" y="590" />
            </Array>
          </mxGeometry>
        </mxCell>
        <mxCell id="q-PneZ8F5QGN0kMSqdm3-20" value="FK" style="text;html=1;align=left;verticalAlign=middle;resizable=0;points=[];autosize=1;strokeColor=none;fillColor=none;" vertex="1" parent="1">
          <mxGeometry x="160" y="690" width="40" height="30" as="geometry" />
        </mxCell>
        <mxCell id="q-PneZ8F5QGN0kMSqdm3-37" value="Modificacion: Cascada Y Borrado: No Action" style="text;html=1;align=left;verticalAlign=middle;resizable=0;points=[];autosize=1;strokeColor=none;fillColor=none;" vertex="1" parent="1">
          <mxGeometry x="340" y="10" width="260" height="30" as="geometry" />
        </mxCell>
        <mxCell id="q-PneZ8F5QGN0kMSqdm3-38" value="Modificacion: Cascada Y Borrado: No Action" style="text;html=1;align=left;verticalAlign=middle;resizable=0;points=[];autosize=1;strokeColor=none;fillColor=none;" vertex="1" parent="1">
          <mxGeometry x="440" y="60" width="260" height="30" as="geometry" />
        </mxCell>
        <mxCell id="q-PneZ8F5QGN0kMSqdm3-39" value="Modificacion Y Borrado: Cascada" style="text;html=1;align=left;verticalAlign=middle;resizable=0;points=[];autosize=1;strokeColor=none;fillColor=none;" vertex="1" parent="1">
          <mxGeometry x="210" y="290" width="200" height="30" as="geometry" />
        </mxCell>
        <mxCell id="q-PneZ8F5QGN0kMSqdm3-40" value="Modificacion: Cascada Y Borrado: No Action" style="text;html=1;align=left;verticalAlign=middle;resizable=0;points=[];autosize=1;strokeColor=none;fillColor=none;" vertex="1" parent="1">
          <mxGeometry x="160" y="220" width="260" height="30" as="geometry" />
        </mxCell>
        <mxCell id="q-PneZ8F5QGN0kMSqdm3-41" value="Modificacion Y Borrado: No Action" style="text;html=1;align=left;verticalAlign=middle;resizable=0;points=[];autosize=1;strokeColor=none;fillColor=none;" vertex="1" parent="1">
          <mxGeometry x="190" y="130" width="210" height="30" as="geometry" />
        </mxCell>
        <mxCell id="q-PneZ8F5QGN0kMSqdm3-42" value="Modificacion: Cascada Y Borrado: No Action" style="text;html=1;align=left;verticalAlign=middle;resizable=0;points=[];autosize=1;strokeColor=none;fillColor=none;" vertex="1" parent="1">
          <mxGeometry x="200" y="555" width="260" height="30" as="geometry" />
        </mxCell>
        <mxCell id="q-PneZ8F5QGN0kMSqdm3-43" value="Modificacion: Cascada Y Borrado: No Action" style="text;html=1;align=left;verticalAlign=middle;resizable=0;points=[];autosize=1;strokeColor=none;fillColor=none;" vertex="1" parent="1">
          <mxGeometry x="230" y="615" width="260" height="30" as="geometry" />
        </mxCell>
        <mxCell id="q-PneZ8F5QGN0kMSqdm3-44" value="Modificacion: Cascada Y Borrado: No Action" style="text;html=1;align=left;verticalAlign=middle;resizable=0;points=[];autosize=1;strokeColor=none;fillColor=none;" vertex="1" parent="1">
          <mxGeometry x="75" y="710" width="260" height="30" as="geometry" />
        </mxCell>
        <mxCell id="q-PneZ8F5QGN0kMSqdm3-45" value="Modificacion Y Borrado: No Action" style="text;html=1;align=left;verticalAlign=middle;resizable=0;points=[];autosize=1;strokeColor=none;fillColor=none;" vertex="1" parent="1">
          <mxGeometry x="140" y="650" width="210" height="30" as="geometry" />
        </mxCell>
      </root>
    </mxGraphModel>
  </diagram>
</mxfile>
